<svg xmlns="http://www.w3.org/2000/svg" xmlns:xlink="http://www.w3.org/1999/xlink" viewBox="0 0 296.27 145.13"><defs><style>.cls-1{fill:url(#linear-gradient);}.cls-2{fill:url(#linear-gradient-2);}.cls-3{fill:none;stroke-width:9px;stroke:url(#linear-gradient-3);}.cls-3,.cls-5{stroke-miterlimit:10;}.cls-4{fill:#f7e439;}.cls-5{fill:#16b792;stroke:#14b792;stroke-width:1.03px;}</style><linearGradient id="linear-gradient" x1="48.92" y1="26.42" x2="48.8" y2="0.75" gradientUnits="userSpaceOnUse"><stop offset="0.27" stop-color="#6fccdd"/><stop offset="0.76" stop-color="#70c281"/></linearGradient><linearGradient id="linear-gradient-2" x1="51.14" y1="156.69" x2="49.41" y2="-6.44" gradientUnits="userSpaceOnUse"><stop offset="0.16" stop-color="#71cac3"/><stop offset="0.31" stop-color="#71c9bf"/><stop offset="0.52" stop-color="#71c492"/><stop offset="0.89" stop-color="#70c386"/></linearGradient><linearGradient id="linear-gradient-3" x1="49.34" y1="145.26" x2="48.32" y2="12.84" gradientUnits="userSpaceOnUse"><stop offset="0" stop-color="#71cac3"/><stop offset="0.31" stop-color="#71c9bf"/><stop offset="0.52" stop-color="#71c492"/><stop offset="0.89" stop-color="#70c386"/></linearGradient></defs><g id="Layer_2" data-name="Layer 2"><g id="Layer_1-2" data-name="Layer 1"><rect class="cls-1" x="28.82" width="40.02" height="13.86" rx="1.13"/><path class="cls-2" d="M42,17.47a7.67,7.67,0,0,0-4.45,7.42,6.28,6.28,0,0,0,.92,3,7.4,7.4,0,0,0,1.3,1.85L88,91.29a27.73,27.73,0,0,1,5,9.37,35.3,35.3,0,0,1,1.67,10.66,30.27,30.27,0,0,1-7.05,20.22q-7.78,9.09-20.4,9.09H61.63q3.34-2.22,3.34-7A8.91,8.91,0,0,0,63.12,128L10.44,60.13A22.22,22.22,0,0,1,6,46.77q0-10.76,8.17-20t18.92-9.27ZM7.47,77.57q.18,0,13,16.32Q41.6,121,44.19,124.31l12.62,16.32H7.47Zm81.24-6.69L46.41,17.47h42.3Z"/><path class="cls-3" d="M40.49,17.47A7.67,7.67,0,0,0,36,24.89a6.31,6.31,0,0,0,.93,3,7.13,7.13,0,0,0,1.3,1.85L86.49,91.29a27.88,27.88,0,0,1,5,9.37,35,35,0,0,1,1.67,10.66,30.27,30.27,0,0,1-7,20.22q-7.78,9.09-20.4,9.09H60.15q3.33-2.22,3.33-7A8.91,8.91,0,0,0,61.63,128L9,60.13A22.21,22.21,0,0,1,4.5,46.77q0-10.76,8.16-20t18.92-9.27ZM6,77.57q.2,0,13,16.32Q40.12,121,42.71,124.31l12.61,16.32H6Zm81.25-6.69L44.93,17.47h42.3Z"/><polygon class="cls-4" points="55.53 45.95 29.82 89.95 49.8 84.18 43.35 111.41 71.09 69.12 49.81 74.58 55.53 45.95"/><path class="cls-5" d="M176.39,19.43,167.54,69a4.89,4.89,0,0,1-1.33,2.54,4.63,4.63,0,0,1-2.5,1.37,4.88,4.88,0,0,1-2.86-.34,4.66,4.66,0,0,1-2.12-1.83L141.19,41.87,123.61,70.7a4.37,4.37,0,0,1-1.71,1.65,4.79,4.79,0,0,1-2.34.59,4.66,4.66,0,0,1-3.06-1.1A4.61,4.61,0,0,1,114.88,69L106,19.43h9.73L122,54.33l15.11-24.1a4.33,4.33,0,0,1,1.71-1.66,4.87,4.87,0,0,1,2.34-.59,4.74,4.74,0,0,1,2.32.59,5,5,0,0,1,1.77,1.66l15,24.1,6.34-34.9Z"/><path class="cls-5" d="M232,72.61h-9.58v-13H188.69v13H179.1V46.19a28,28,0,0,1,2-10.65,24.9,24.9,0,0,1,5.53-8.37A25.2,25.2,0,0,1,195,21.72a27.69,27.69,0,0,1,10.54-2h21.59a4.89,4.89,0,0,1,1.88.37,4.83,4.83,0,0,1,1.55,1,4.85,4.85,0,0,1,1.4,3.43ZM188.69,50.06h33.68V29.35H205.53c-.29,0-.92,0-1.86.12a19.66,19.66,0,0,0-3.28.65,20.55,20.55,0,0,0-3.93,1.58,14,14,0,0,0-3.79,2.95,15.1,15.1,0,0,0-2.86,4.7,18.49,18.49,0,0,0-1.12,6.84Z"/><path class="cls-5" d="M295.75,41.88a19.58,19.58,0,0,1-.81,5.86,16.56,16.56,0,0,1-2.19,4.55,15.78,15.78,0,0,1-3.19,3.37,18.55,18.55,0,0,1-3.78,2.28,19.47,19.47,0,0,1-4,1.3,19.16,19.16,0,0,1-3.78.4H256.35V50.06H278a11.12,11.12,0,0,0,3.34-.76,7.87,7.87,0,0,0,2.56-1.64,7.11,7.11,0,0,0,1.66-2.49,8.77,8.77,0,0,0,.59-3.29V37.53a12.61,12.61,0,0,0-.78-3.32,7.83,7.83,0,0,0-1.6-2.58A7.16,7.16,0,0,0,281.34,30a8.37,8.37,0,0,0-3.32-.61H256.43a4,4,0,0,0-2.92,1,3.89,3.89,0,0,0-1,2.87v39.4h-9.58V33.21A13.37,13.37,0,0,1,244.28,27a12.62,12.62,0,0,1,3.36-4.16A13.2,13.2,0,0,1,252,20.48a15,15,0,0,1,4.35-.72H278a19.13,19.13,0,0,1,5.83.83,17,17,0,0,1,4.55,2.22A15.17,15.17,0,0,1,291.75,26,20,20,0,0,1,294,29.77a17.67,17.67,0,0,1,1.31,4,19.21,19.21,0,0,1,.41,3.78Z"/><path class="cls-5" d="M168.05,133.76a4.89,4.89,0,0,1-.39,2,5.17,5.17,0,0,1-1,1.55,4.77,4.77,0,0,1-1.56,1,4.93,4.93,0,0,1-1.91.38,5.14,5.14,0,0,1-1.82-.34,4.11,4.11,0,0,1-1.63-1.09L124.05,100v37.89h-9.76V88.29a4.69,4.69,0,0,1,.85-2.72,5.25,5.25,0,0,1,2.15-1.82,4.89,4.89,0,0,1,2.85-.28,4.56,4.56,0,0,1,2.52,1.37L158.3,122V84.12h9.75Z"/><path class="cls-5" d="M227.94,137.92H192.76a15.84,15.84,0,0,1-4.43-.71,13,13,0,0,1-7.86-6.59,13.67,13.67,0,0,1-1.37-6.4V89a4.9,4.9,0,0,1,.38-1.91,5,5,0,0,1,1-1.58,4.67,4.67,0,0,1,1.56-1,5,5,0,0,1,2-.38h43.92v9.76H188.86v30.34a3.54,3.54,0,0,0,4,3.94h35.11Zm-4.38-22h-30.8v-9.83h30.8Z"/><path class="cls-5" d="M291.78,93.88h-21.5v44h-9.75v-44H239V84.12h52.78Z"/></g></g></svg>